<?xml version="1.0" standalone="no"?>
<!DOCTYPE svg PUBLIC "-//W3C//DTD SVG 1.1//EN" "http://www.w3.org/Graphics/SVG/1.1/DTD/svg11.dtd">
<svg xmlns="http://www.w3.org/2000/svg">
<metadata>Copyright (C) 2020 by original authors @ fontello.com</metadata>
<defs>
<font id="fontello" horiz-adv-x="1000" >
<font-face font-family="fontello" font-weight="400" font-stretch="normal" units-per-em="1000" ascent="850" descent="-150" />
<missing-glyph horiz-adv-x="1000" />
<glyph glyph-name="close" unicode="&#xe806;" d="M988 838c-16 16-41 16-57 0l-919-919c-16-16-16-41 0-57 8-8 18-12 28-12 11 0 21 4 29 12l919 919c16 16 16 41 0 57z m0-919l-919 919c-16 16-41 16-57 0-16-16-16-41 0-57l919-919c8-8 18-12 29-12 10 0 20 4 28 12 16 16 16 41 0 57z" horiz-adv-x="1000" />

<glyph glyph-name="play" unicode="&#xe82f;" d="M772 333l-741-412q-13-7-22-2t-9 20v822q0 14 9 20t22-2l741-412q13-7 13-17t-13-17z" horiz-adv-x="785.7" />

<glyph glyph-name="001-car" unicode="&#xe833;" d="M415 400h67v-34h-67v34z m569 50l-113 16c-21 12-42 24-64 34-73 33-153 50-233 50h-19c-95 0-188-24-271-69l-57-31c-67-1-132-19-190-52-24-14-39-39-39-66v-99c0-9 8-17 17-17h56c18-52 75-79 127-61 28 10 51 33 61 61h445c19-52 76-79 127-61 29 10 51 33 61 61h6c2 0 4 1 7 2l53 21c25 10 40 33 40 59v135c0 8-6 15-14 17z m-754-214c-7-36-42-59-78-52-36 8-60 43-52 79 7 36 42 59 78 52 31-6 54-34 54-65 0-5-1-9-2-14z m302 14h-267c0 55-45 100-100 100s-100-45-100-100h-33v82c0 15 8 29 21 37 55 31 116 47 179 47h300v-166z m0 200h-235l3 1c72 39 151 61 232 65v-66z m33 66h9c68 0 134-12 197-37l-29-29h-177v66z m299-280c-8-36-43-59-79-52-36 8-59 43-52 79 7 36 43 59 79 52 31-6 53-34 53-65 0-5 0-9-1-14z m101 164h-50v-34h50v-68c0-12-7-23-19-28l-48-19c0 2 0 3 0 5 0 1 0 3 0 5 0 1-1 3-1 5 0 1 0 3-1 5 0 1-1 3-1 4 0 2-1 4-1 5-1 2-1 3-2 5 0 1-1 3-2 4 0 2-1 3-2 5 0 1-1 2-2 4-1 1-2 2-2 4-1 1-2 3-3 4-1 1-2 2-3 4-1 1-2 2-3 4-1 1-2 2-3 3-1 1-2 2-3 4-1 1-2 2-4 3-1 1-2 2-3 3-1 1-3 2-4 3-1 1-3 2-4 3-1 1-3 1-4 2-2 1-3 2-4 3-2 0-3 1-5 2-1 1-3 1-4 2-1 0-3 1-5 2-2 0-3 1-4 1-2 1-4 1-6 2-1 0-2 1-4 1-2 0-4 1-6 1-1 0-2 0-4 0-3 1-6 1-10 1-55 0-100-45-100-100h-133v166h183c5 0 9 2 12 5l43 44c18-9 36-19 53-29 2-1 4-2 7-3l102-14v-19z" horiz-adv-x="1000" />

<glyph glyph-name="002-bus" unicode="&#xe834;" d="M307 235c-47 0-86-39-86-86s39-86 86-86 86 38 86 86-39 86-86 86z m0-133c-26 0-47 21-47 47s21 47 47 47 47-22 47-47-21-47-47-47z m586 535h-100c-11 0-20-8-20-19s9-20 20-20h100c31 0 58-21 66-50h-166c-11 0-20-8-20-19v-176c0-11 9-19 20-19h168v-166h-57c-9 38-43 67-84 67s-75-29-84-67h-2v361c0 10-8 19-19 19h-156c-11 0-20-9-20-19v-157h-363c-10 0-19-9-19-20 0-11 9-19 19-19h363v-165h-99c-11 0-20-9-20-20s9-19 20-19h296c9-38 43-66 84-66s75 28 84 66h77c10 0 19 9 19 19v383c0 59-48 106-107 106z m-198-279h-12c-11 0-19-9-19-20s8-19 19-19h12v-151h-117v341h117v-151z m125-256c-26 0-47 21-47 47s21 47 47 47 47-22 47-47-21-47-47-47z m141 271h-148v136h148v-136z m-232 259c-4 3-9 5-14 5s-10-2-14-5c-4-4-6-9-6-14s3-10 6-14 9-6 14-6 10 2 14 6 5 9 5 14-2 10-5 14z m-92 5h-530c-54 0-98-39-106-91-1-2-1-4-1-6v-392c0-10 9-19 20-19h147c10 0 19 9 19 19s-9 20-19 20h-128v243h67c10 0 19 9 19 19v110c0 10-9 19-19 19h-60c10 23 34 39 61 39h530c11 0 19 9 19 20s-8 19-19 19z m-551-117v-70h-47v70h47z m33-154c-3 4-8 6-13 6s-11-2-14-6-6-9-6-14c0-5 2-10 6-14 3-3 8-5 14-5s10 2 13 5c4 4 6 9 6 14s-2 10-6 14z m362 193h-110c-11 0-19-9-19-19v-110c0-10 8-19 19-19h110c10 0 19 9 19 19v110c0 10-9 19-19 19z m-20-109h-70v70h70v-70z m-168 109h-109c-11 0-20-9-20-19v-110c0-10 9-19 20-19h109c11 0 20 9 20 19v110c0 10-9 19-20 19z m-20-109h-70v70h70v-70z" horiz-adv-x="1000" />

<glyph glyph-name="apple" unicode="&#xe835;" d="M969 194h-938c-17 0-31 14-31 31v250c0 17 14 31 31 31h938c17 0 31-14 31-31v-250c0-17-14-31-31-31z m-758 158c0 24 20 36 21 36-12 17-29 19-35 20-15 1-30-9-37-9-8 0-19 9-32 9-16 0-31-10-40-24-17-30-4-74 12-98 9-12 18-25 31-24 12 1 17 8 32 8 14 0 18-8 32-8s21 11 29 23c10 13 14 27 14 28-1 0-27 10-27 39z m-24 71c6 9 11 20 10 32-9-1-22-7-28-15-6-7-12-19-10-30 10-1 21 6 28 13z m202-160h-17l-9 30h-33l-9-30h-16l33 101h20l31-101z m-30 43l-8 26c-1 2-3 9-6 19l0 0c0-4-2-11-4-19l-9-26h27z m114-6c0-12-3-22-10-30-7-6-14-9-23-9-9 0-17 3-20 10l0 0v-38h-17v78c0 8 0 16-1 24h14l1-12 0 0c6 9 14 14 24 14 9 0 16-3 22-10 7-7 10-15 10-27z m-17 0c0 7-1 13-4 17-4 5-8 7-14 7-4 0-8-1-11-4-4-2-6-6-7-10 0-2 0-4 0-4v-13c0-5 1-9 4-13s8-6 13-6c6 0 11 3 14 7 4 5 5 11 5 19z m100 0c0-12-3-22-10-30-6-6-13-9-23-9s-16 3-20 10l0 0v-38h-16v78c0 8 0 16-1 24h14l1-12 0 0c5 9 13 14 24 14 9 0 16-3 21-10 7-7 10-15 10-27z m-16 0c0 7-2 13-5 17-3 5-8 7-14 7-4 0-8-1-11-4-3-2-5-6-6-10-1-2-1-4-1-4v-13c0-5 2-9 5-13 3-4 8-6 12-6 7 0 11 3 14 7 4 5 6 11 6 19z m110-9c0-8-3-15-9-21-6-6-15-8-27-8-11 0-19 2-26 6l4 13c7-4 15-6 24-6 6 0 11 2 14 4 3 3 4 6 4 11 0 4-1 8-3 10-4 3-8 6-15 8-18 6-26 16-26 29 0 8 3 15 9 20 7 6 14 8 25 8 10 0 17-2 23-5l-4-13c-5 3-12 5-20 5-5 0-10-2-13-4-2-3-4-6-4-10s2-7 5-10c2-2 8-5 15-8 8-3 15-7 19-12 3-4 5-10 5-17z m53 32h-18v-35c0-8 3-13 10-13 3 0 5 0 7 1l0-13c-3-1-7-1-12-1-6 0-12 1-15 5-4 4-5 10-5 20v36h-11v13h11v13l15 5v-18h18v-13z m81-23c0-11-3-20-10-27-7-7-15-11-26-11s-20 4-26 11-9 15-9 26 3 21 10 28c6 7 15 11 26 11s20-4 26-11c6-7 9-16 9-27z m-18-1c0 7-1 13-4 17-3 6-9 9-15 9-6 0-12-3-15-9-3-4-5-10-5-17 0-7 2-12 5-17 3-5 9-9 15-9 6 0 11 4 15 9 3 5 4 11 4 17z m70 23c-2 0-3 1-5 1-6 0-11-3-14-7-2-3-4-8-4-14v-38h-16v50c0 9 0 16-1 23h14l1-14h1c1 4 4 8 8 11 3 3 7 4 11 4 2 0 3 0 4 0l1-16 0 0z m72-19c0-3 0-5-1-7h-48c0-7 2-12 7-16 4-3 9-6 15-6 7 0 14 1 20 3l2-11c-7-3-15-4-24-4-11 0-20 3-27 10-6 6-9 16-9 26s3 21 9 28c6 8 14 12 25 12 11 0 19-4 24-12 5-6 7-14 7-23z m-15 4c0 5-1 9-3 13-3 4-7 7-13 7-5 0-9-3-12-7-2-3-4-7-5-12h33v-1z m-538 119c0-9-3-16-8-20-5-4-12-7-21-7-5 0-9 0-12 1v48c4 1 9 1 14 1 9 0 15-1 20-5 4-4 7-10 7-18z m-9 0c0 5-1 10-5 13s-7 5-13 5c-2 0-5 0-6-1v-37c1 0 3 0 5 0 7 0 11 2 14 5 4 3 5 9 5 15z m52-8c0-5-1-10-4-13-3-4-8-6-13-6s-10 2-13 6c-3 3-5 8-5 13s2 10 5 13c3 4 8 6 13 6s10-2 13-6c3-3 4-8 4-13z m-7 0c0 3-1 6-3 9-1 3-4 4-7 4s-5-2-7-4c-1-3-2-6-2-9s1-6 2-9c2-3 4-3 7-3s6 1 7 4c2 2 3 5 3 8z m68 18l-11-36h-7l-5 16c-2 4-2 7-3 11l0 0c-1-4-2-7-3-11l-5-16h-7l-12 36h8l4-17c1-4 2-8 2-12l0 0c1 3 2 7 3 12l5 17h6l5-16c2-4 2-8 3-12l0 0c1 4 2 8 3 12l4 16h10z m40-36h-8v20c0 7-2 10-7 10-2 0-3-1-5-3-2-1-2-4-2-6v-21h-8v26c0 3 0 6 0 10h7v-5l0 0c1 1 2 3 4 4 2 2 4 3 7 3 3 0 6-1 8-4 3-2 4-6 4-11v-23z m22 0h-8v52h8v-52z m47 18c0-5-2-10-5-13-3-4-7-6-13-6s-9 2-12 6c-4 3-5 8-5 13s1 10 5 13c3 3 7 6 13 6s9-2 12-6c3-3 5-8 5-13z m-8 0c0 3-1 6-2 9-2 3-4 4-7 4-3 0-6-2-7-4-2-3-3-6-3-9s1-6 3-9c1-3 4-3 7-3 3 0 5 1 7 4 1 2 2 5 2 8z m46-18h-7l-1 4 0 0c-2-3-6-5-10-5-3 0-6 1-7 3-2 3-4 5-4 7 0 5 2 8 6 11 4 2 8 3 15 3v0c0 5-2 8-7 8-3 0-6-1-9-3l-1 6c3 2 7 3 12 3 9 0 14-5 14-15v-13c-1-4-1-7-1-9z m-8 13v5c-8 0-13-2-13-7 0-2 1-3 2-4 1-1 2-1 4-1s3 0 4 1c2 1 3 2 3 4 0 0 0 1 0 2z m54-13h-7v6l0 0c-3-5-7-7-12-7-5 0-8 2-11 5-3 3-4 8-4 13s2 10 5 14c3 3 7 5 11 5 4 0 7-2 10-5l0 0v21h8v-43c0-3 0-6 0-9z m-8 15v6c0 1 0 2 0 2-1 2-2 4-3 5-2 2-3 2-6 2-3 0-5-2-7-4-1-3-2-6-2-10s1-6 2-8 4-4 7-4c3 0 5 1 6 3 2 3 3 6 3 8z m76 3c0-5-2-10-5-13-3-4-8-6-13-6s-10 2-13 6c-3 3-5 8-5 13s2 10 5 13c3 4 8 6 13 6s10-2 13-6c3-3 5-8 5-13z m-9 0c0 3-1 6-2 9-2 3-4 4-7 4s-6-2-7-4c-2-3-3-6-3-9s1-6 3-9c1-3 3-3 7-3s5 1 7 4c1 2 2 5 2 8z m52-18h-8v20c0 7-3 10-7 10-3 0-4-1-6-3-1-1-2-4-2-6v-21h-8v26c0 3 0 6 0 10h7v-5l0 0c1 1 2 3 4 4 2 2 5 3 7 3 3 0 6-1 9-4 3-2 4-6 4-11v-23z m53 30h-9v-17c0-5 2-7 5-7 1 0 2 0 4 0v-6c-2-1-4-1-7-1-3 0-5 1-7 3-1 2-2 6-2 10v18h-5v6h5v6l8 3v-9h8v-6h0z m42-30h-8v20c0 7-2 10-7 10-4 0-6-2-8-6 0-1 0-1 0-3v-21h-8v52h8v-21l0 0c3 3 6 6 11 6 3 0 6-1 8-3 2-3 4-7 4-12v-22z m43 20c0-2 0-3 0-4h-24c0-4 2-7 4-8 2-2 4-2 7-2 4 0 7 0 10 1l1-5c-3-2-7-3-11-3-6 0-11 2-14 5-3 3-4 8-4 13s1 10 4 14c3 3 7 5 13 5 5 0 9-2 11-5 2-3 3-7 3-11z m-7 2c0 2-1 5-2 6-1 3-3 3-6 3-2 0-5 0-6-3-2-1-3-4-3-6h17z" horiz-adv-x="1000" />

<glyph glyph-name="arrow-long" unicode="&#xe836;" d="M775 587c-10 9-23 9-32 0-10-10-10-23 0-32l165-165h-873c-13 0-22-10-22-22s9-26 22-26h873l-165-165c-10-9-10-25 0-32 9-9 25-9 32 0l206 207c10 9 10 22 0 31l-206 204z" horiz-adv-x="1000" />

<glyph glyph-name="arrow-point-to-right" unicode="&#xe837;" d="M765 300l-430-430c-28-27-72-27-99 0-28 28-28 72 0 99l380 381-380 381c-28 27-28 71 0 98 27 28 71 28 99 0l430-430c13-13 20-31 20-49 0-18-7-36-20-50z" horiz-adv-x="1000" />

<glyph glyph-name="check" unicode="&#xe838;" d="M754 456l-271-271c-9-8-19-12-30-12s-21 4-29 12l-136 136c-16 16-16 42 0 59 17 16 43 16 59 0l106-107 242 242c16 16 42 16 59 0 16-16 16-43 0-59z" horiz-adv-x="1000" />

<glyph glyph-name="clouds" unicode="&#xe839;" d="M700 703c0 0 0 0 0 0 1 3 1 5 1 8 0 11-9 20-20 20-4 0-8-1-11-3-4 10-14 18-26 18-15 0-28-13-28-29 0-1 0-2 0-3 0 0 0 0 0 0-10 0-19-9-19-19 0-10 9-19 19-19h84c7 0 13 6 13 14 0 7-6 13-13 13z m-34-18c0 0 0 0 0 0 1 3 2 7 2 10 0 14-11 24-24 24-5 0-10-1-13-3-6 12-18 21-32 21-19 0-34-15-34-34 0-2 0-3 0-4 0 0 0 0 0 0-13 0-23-11-23-23 0-13 10-23 23-23h101c9 0 16 7 16 16 0 9-7 16-16 16z" horiz-adv-x="1000" />

<glyph glyph-name="google-play-badge" unicode="&#xe83a;" d="M969 194h-938c-17 0-31 14-31 31v250c0 17 14 31 31 31h938c17 0 31-14 31-31v-250c0-17-14-31-31-31z m-892 159v82c0 5 4 9 7 9s6-1 8-3l151-82c3-2 5-4 5-7s-2-4-5-6l-151-83c-1 0-4-2-8-2s-7 4-7 9v83z m97-1l-91 92c1 0 1 0 1 0 4 0 6-1 8-3l111-60-29-29z m28-27l-28 28 29 29 40-22c3-1 5-4 5-6s-2-5-5-6l-41-23z m-118-62l0 0 90 90 28-28-110-60c-2-2-4-2-8-2 0 0 0 0 0 0z m472-22c-4 4-8 9-9 12l12 6c1-2 3-4 4-7 3-3 8-6 13-6s10 2 13 6c2 4 4 8 4 14v4c-9-11-29-10-40 3-12 12-12 33 0 46 12 12 29 13 39 2l0 0v6h14v-59c0-15-6-23-13-29-5-4-12-5-18-5-7 0-14 3-19 7l0 0z m327-3l0 0 13 32-23 53h13l16-38 17 38h13l-36-85-13 0 0 0z m-63 30l0 0c-4 4-6 9-6 15 0 5 2 9 5 12 5 6 13 8 22 8 5 0 10-1 14-3 0 9-8 13-14 13-6 0-11-3-14-8l-11 4c2 6 8 16 24 16 8 0 16-2 20-8 5-5 6-11 6-20v-33h-13v6c-1-3-5-4-7-6-3-1-7-2-11-2-4 1-12 2-15 6l0 0z m-417 28l0 0c0 16 12 33 33 33 20 0 33-17 33-33s-12-33-33-33c-21 0-33 18-33 33l0 0z m70 0l0 0c0 16 12 33 33 33 21 0 33-17 33-33s-12-33-33-33c-20 0-33 18-33 33l0 0z m-158-17l0 0c-20 19-19 52 1 72 10 10 22 15 36 15 12 0 25-5 34-14l-9-11c-14 15-37 14-50 0-14-15-14-38 0-53s37-15 51 0c5 4 6 10 7 17h-33v14h46c1-3 1-7 1-11 0-12-4-24-12-31-9-9-21-14-34-14-14 1-28 6-38 16l0 0z m330-6l0 0c-11 13-11 34 0 47 12 13 32 13 43 0 3-4 6-9 8-14l-43-18c3-6 8-11 16-11 7 0 12 3 16 10l12-8 0 0c-2-2-3-3-4-5-13-13-36-13-48-1l0 0z m82-9l0 0v87h28c16 0 29-12 29-26 0-14-11-26-26-26h-17v-34l-14-1 0 0z m65 0l0 0v87h14v-87h-14l0 0z m-176 2l0 0v97h14v-97h-14l0 0z m238 24l0 0c-3 2-8 3-13 3-9 0-14-5-14-10s5-9 11-9c7 0 16 7 16 16l0 0z m-400 6l0 0c0 10-6 20-18 20s-18-10-18-20 6-19 18-19c11 0 18 10 18 19l0 0z m70 0l0 0c0 10-6 20-18 20s-18-10-18-20 7-19 18-19 18 10 18 19l0 0z m70-5l0 0c0 0 0 1 1 2l0 0c0 1 0 2 0 3 0 1 0 2 0 3v1c0 1-1 2-1 3-3 8-10 13-17 13-9 0-17-9-17-19 0-11 8-20 18-20 6 0 13 5 16 14l0 0z m57 7l0 0 29 12c-3 6-8 7-12 7-12-1-19-13-17-19l0 0z m119 26l0 0c0 8-6 14-14 14h-16v-28h16c8 0 14 6 14 14z m123-70l0 0c0 1 0 1 0 0l0 0c0 1 0 1 0 0l0 0 0 0 0 0 0 0 0 0 0 0 0 0 0 0z m0 1l0 0 0 0 0 0 0 0 0 0 0 0 0 0z m0-1l0 0 0 0 0 0 0 0 0 0 0 0 0 0 0 0 0 0z m0 1l0 0 0 0 0 0 0 0 0 0 0 0z m0-1l0 0c0 1 0 1 0 0l0 0 0 0 0 0 0 0 0 0z m0 0l0 0 0 0 0 0 0 0 0 0c0 1 0 1 0 0l0 0z m1 0l0 0c0 1 0 1 0 0 0 1 0 1 0 0l0 0c0 1 0 1 0 0l0 0 0 0 0 0 0 0 0 0z m0 1l0 0 0 0 0 0 0 0 0 0 0 0 0 0 0 0z m0-1l0 0 0 0 0 0 0 0 0 0c0 1 0 1 0 0l0 0z m0 0l0 0c0 1 0 1 0 0 0 1 0 1 0 0l0 0 0 0 0 0 0 0z m0 1l0 0c0-1 0-1 0 0 0-1 0-1 0 0l0 0 0 0 0 0 0 0z m0-1l0 0 0 0 0 0 0 0 0 0 0 0 0 0 0 0c0 1 0 1 0 0 0 1 0 1 0 0l0 0c0 1 0 1 0 0 0 1 0 1 0 0l0 0 0 0 0 0 0 0z m1 0l0 0c0 1 0 1 0 0-1 1-1 1 0 0l0 0c-1 0-1 0 0 0l0 0 0 0z m0 1l0 0c0-1 0-1 0 0 0-1-1-1 0 0l0 0c-1 0 0 0 0 0l0 0 0 0z m0-1l0 0 0 0 0 0 0 0 0 0 0 0 0 0 0 0 0 0z m0 1l0 0 0 0 0 0 0 0 0 0 0 0z m0-1c0 1 0 1 0 0 0 1 0 1 0 0 0 1 0 1 0 0 0 1 0 1 0 0l0 0c0 1 0 1 0 0 0 1 0 1 0 0 0 1 0 1 0 0 0 1 0 1 0 0l0 0 0 0 0 0 0 0 0 0z m0 0l0 0c0 1 0 1 0 0l0 0c0 1 0 1 0 0l0 0 0 0 0 0 0 0 0 0 0 0 0 0 0 0z m0 1l0 0 0 0 0 0 0 0 0 0 0 0 0 0z m-591 172c0 14 10 23 23 23 8 0 14-4 18-9l-7-4c-2 3-6 5-11 5-9 0-15-6-15-15s6-16 15-16c4 0 8 2 10 4v7h-13v7h21v-16c-4-5-10-8-18-8-13 0-23 9-23 22z m51-21v43h29v-7h-22v-11h22v-7h-22v-12h22v-7l-29 1 0 0z m51 0v36h-13v7h34v-7h-13v-36c0 0-8 0-8 0z m48 0v43h8v-43h-8z m29 0v36h-13v7h34v-7h-13v-36c0 0-8 0-8 0z m46 21c0 14 9 23 23 23s22-9 22-23c0-13-9-22-22-22-14 0-23 10-23 22z m37 0c0 10-6 16-15 16-9 0-15-7-15-16 0-9 5-15 15-15 9 0 15 7 15 15z m47-21l-22 31v-31h-8v43h8l22-30v30h8v-43h-8z" horiz-adv-x="1000" />

<glyph glyph-name="plane1" unicode="&#xe83b;" d="M10 326l137-57-28-15c-9-4-12-14-9-23l40-85c1-5 6-7 10-9 4-1 9-1 13 0l301 142 5 40 5 54c0 7 7 13 15 11 4 0 8-3 10-7 1-1 1-4 1-7l-34-370c7-6 17-7 27-6 13 3 26 19 34 45l140 415 4 12c2 7 10 11 16 8 7-1 12-10 9-15 0 0 0 0 0-2l-15-40-15-46 235 110c69 32 103 96 80 148-12 25-38 44-68 47-33 4-66 0-96-15l-267-124-287 112c-36 14-64 12-84-2-18-14-26-34-26-57 0-6 3-10 7-14l193-133-112-53-185 47c-7 2-16-1-20-8l-46-83c-4-9-1-19 7-25 3 6 3 6 3 5z" horiz-adv-x="1000" />

<glyph glyph-name="sun" unicode="&#xe83c;" d="M848 730l0 0c-2 0-4 2-4 3v22c0 2 2 3 4 3l0 0c1 0 3-1 3-3v-22c0-1-2-3-3-3z m0-98l0 0c-2 0-4 1-4 3v22c0 1 2 3 4 3l0 0c1 0 3-2 3-3v-22c0-2-2-3-3-3z m24 88l0 0c-1 1-1 3 0 4l16 16c1 1 3 1 4 0l0 0c1-2 1-4 0-5l-15-15c-1-1-3-1-5 0z m-69-70l0 0c-1 1-1 3 0 5l15 15c1 1 3 1 5 0l0 0c1-1 1-3 0-4l-16-16c-1-1-3-1-4 0z m80 45l0 0c0 2 1 3 3 3h22c1 0 3-1 3-3l0 0c0-2-2-3-3-3h-22c-2 0-3 1-3 3z m-99 0l0 0c0 2 2 3 3 3h22c2 0 3-1 3-3l0 0c0-2-1-3-3-3h-22c-1 0-3 1-3 3z m88-25l0 0c2 1 4 1 5 0l15-15c1-2 1-4 0-5l0 0c-1-1-3-1-4 0l-16 16c-1 1-1 3 0 4z m-69 70l0 0c1 1 3 1 4 0l16-16c1-1 1-3 0-4l0 0c-2-1-4-1-5 0l-15 15c-1 2-1 3 0 5z" horiz-adv-x="1000" />

<glyph glyph-name="user" unicode="&#xe83e;" d="M493 368c66 0 123 24 170 71 47 47 71 104 71 170 0 66-24 124-71 171-47 46-104 70-170 70-66 0-123-24-170-70s-71-105-71-171c0-66 24-123 71-170 46-47 104-71 170-71z m421-287c-1 20-4 41-8 63-4 23-9 44-15 64-7 20-16 40-26 59-12 20-25 37-40 51-16 15-35 27-57 36-21 9-46 13-72 13-10 0-20-4-39-17-12-7-25-16-41-26-13-8-31-16-52-23-22-7-44-11-65-11s-43 4-64 11c-22 7-40 15-53 23-15 10-29 19-41 26-19 13-29 17-39 17-26 0-50-4-72-13-22-9-41-21-57-36-15-14-28-31-39-51-11-19-20-39-27-59-6-20-11-41-15-64-4-22-7-43-8-63-2-19-2-39-2-59 0-52 16-95 49-126 33-30 75-46 127-46h482c52 0 95 16 127 46 33 31 49 74 49 126 0 20 0 40-2 59z" horiz-adv-x="1000" />

<glyph glyph-name="burger" unicode="&#xe841;" d="M59 850h1412c35 0 58-23 58-59v-59c0-35-23-58-58-58h-1412c-35 0-59 23-59 58v59c0 36 24 59 59 59z m529-412h1353c36 0 59-23 59-59v-58c0-36-23-59-59-59h-1353c-35 0-59 23-59 59v58c0 36 24 59 59 59z m589-411h764c36 0 59-24 59-59v-59c0-36-23-59-59-59h-764c-36 0-59 23-59 59v59c0 35 23 59 59 59z m588 823h176c36 0 59-23 59-59v-59c0-35-23-58-59-58h-176c-36 0-59 23-59 58v59c0 36 23 59 59 59z" horiz-adv-x="2000" />

<glyph glyph-name="hotel" unicode="&#xe842;" d="M870 788v62h-452v-62h-126v-373c74-40 124-118 124-207 0-53-35-140-107-265-5-10-11-20-17-29v-56h323v189h62v-189h316v930l-123 0z m-316-675h-62v62h62v-62z m0 123h-62v62h62v-62z m0 121h-62v62h62v-62z m123-244h-62v62h62v-62z m0 123h-62v62h62v-62z m0 121h-62v62h62v-62z m62 144h-62v72h-62v-72h-61v205h61v-72h62v72h62v-205z m61-388h-61v62h61v-62z m0 123h-61v62h61v-62z m0 121h-61v62h61v-62z m-620 24c-95 0-173-77-173-173 0-24 12-85 98-234 28-49 56-94 75-124 20 30 48 75 76 124 85 149 98 210 98 234 0 96-78 173-174 173z m0-288c-63 0-114 52-114 115s51 114 114 114c64 0 115-51 115-114s-51-115-115-115z m0 168c-29 0-52-24-52-53 0-29 23-53 52-53 30 0 53 24 53 53 0 29-23 53-53 53z" horiz-adv-x="1000" />

<glyph glyph-name="vector" unicode="&#xe843;" d="M1057 502l-138 0-238 253c-52 52-124 86-200 86l-43 0c-24 0-43-29-33-48l133-291-190-4-86 119c-33 47-91 76-152 71l-72 0c-24 0-43-24-33-47l119-277-114-281c-10-23 9-47 33-47l71 0c62 0 115 28 148 76l86 124 190 5-19-58c-9-19 0-38 19-47 19-5 43 0 48 19l38 86 195 4-186-214c-33-38-76-57-128-62l24 57c9 19 0 38-19 48-19 5-43 0-48-19l-43-105c-9-24 10-48 33-48l43 0c76 0 148 34 196 91l228 257 138 0c91 0 172 38 229 110 9 14 9 33 0 42-57 67-143 105-229 100z m-562 267c48-5 96-24 129-57l190-210-195-4-124 271z m562-448l-462-4c0 0 0 0 0 0l-262-5c-14 0-23-5-28-14l-95-143c-19-29-53-43-86-48l-19 0 100 243c5 10 5 19 0 24l-110 243 19 0c34 0 67-15 86-43l100-138c10-10 19-15 33-15l267 5c0 0 0 0 0 0 0 0 0 0 0 0l462 5c57 0 109-19 152-52-47-34-100-58-157-58z" horiz-adv-x="1333" />

<glyph glyph-name="calendar" unicode="&#xe844;" d="M950 783h-117v50c0 10-7 17-16 17h-117c-9 0-17-7-17-17v-50h-366v50c0 10-8 17-17 17h-117c-9 0-16-7-16-17v-50h-117c-9 0-17-7-17-16v-184-716c0-10 8-17 17-17h900c9 0 17 7 17 17v716 184c0 9-8 16-17 16z m-233 34h83v-50-50h-83v50 50z m-517 0h83v-50-50h-83v50 50z m-133-67h100v-50c0-9 7-17 16-17h117c9 0 17 8 17 17v50h366v-50c0-9 8-17 17-17h117c9 0 16 8 16 17v50h100v-150h-866v150z m0-867v684h866v-684h-866z m566 584h-116-34-116-34-150v-150-34-116-34-150h150 34 116 34 116 34 150v150 34 116 34 150h-150-34z m-116-34h116v-116h-116v116z m116-266h-116v116h116v-116z m-266 116h116v-116h-116v116z m0 150h116v-116h-116v116z m-150 0h116v-116h-116v116z m0-150h116v-116h-116v116z m116-266h-116v116h116v-116z m150 0h-116v116h116v-116z m150 0h-116v116h116v-116z m150 0h-116v116h116v-116z m0 150h-116v116h116v-116z m0 266v-116h-116v116h116z" horiz-adv-x="1000" />

<glyph glyph-name="download" unicode="&#xe845;" d="M971 362c-16 0-28-13-28-29v-261c0-71-58-128-129-128h-628c-71 0-129 58-129 128v265c0 16-12 29-28 29s-29-13-29-29v-265c0-102 83-185 186-185h628c103 0 186 83 186 185v261c0 16-13 29-29 29z m-491-248c5-5 13-8 20-8s15 2 20 8l182 182c12 11 12 30 0 41-11 11-29 11-40 0l-133-133v581c0 16-13 28-29 28s-29-12-29-28v-581l-133 133c-11 11-29 11-40 0-12-11-12-30 0-41l182-182z" horiz-adv-x="1000" />

<glyph glyph-name="eye" unicode="&#xe846;" d="M863 486c-201 201-528 201-729 0l-134-134 138-138c100-100 232-150 364-150s264 50 364 150l134 134-137 138z m-21-248c-188-187-493-187-681 0l-113 114 110 110c188 188 493 188 681 0l113-114-110-110z m-359 248c-66 0-119-53-119-119 0-9 8-16 17-16s17 7 17 16c0 47 38 85 85 85 9 0 17 7 17 17s-8 17-17 17z m17 84c-122 0-220-98-220-219s98-220 220-220 219 98 219 220-98 219-219 219z m0-405c-103 0-186 83-186 186s83 185 186 185 185-83 185-185-83-186-185-186z" horiz-adv-x="1000" />

<glyph glyph-name="search-20bold" unicode="&#xe847;" d="M968-61l-238 248c61 72 95 164 95 259 0 223-181 404-404 404s-404-181-404-404 181-403 404-403c84 0 163 25 231 73l240-250c10-10 24-16 38-16 14 0 27 5 37 15 21 20 21 53 1 74z m-547 806c165 0 298-134 298-299s-133-298-298-298-298 134-298 298 134 299 298 299z" horiz-adv-x="1000" />

<glyph glyph-name="neuter" unicode="&#xf22c;" d="M643 529q0-124-82-215t-204-105v-341q0-8-5-13t-13-5h-35q-8 0-13 5t-5 13v341q-121 14-204 105t-82 215q0 65 25 124t69 103 103 69 124 25 125-25 103-69 69-103 25-124z m-322-250q104 0 177 73t73 177-73 176-177 74-176-74-74-176 74-177 176-73z" horiz-adv-x="714.3" />
</font>
</defs>
</svg>
